# xmcd CD database file
#
# Track frame offsets:
#	150
#	16200
#	28630
#	44182
#	56382
#	68917
#	77792
#	91260
#	100460
#	113207
#	120732
#	135962
#	150182
#	165252
#	171837
#	186715
#	191385
#	203695
#	209057
#	223290
#	235312
#	248072
#
# Disc length: 3619 seconds
#
# Revision: 1
# Processed by: cddbd v1.5.2PL0 Copyright (c) Steve Scherf et al.
# Submitted via: CDex 1.70beta2
#
DISCID=350e2116
DTITLE=Paul Robeson - Ol' Man River
DYEAR=1900
DGENRE=Blues
TTITLE0=Medley
TTITLE1=Swing Low Sweet Chariot
TTITLE2=My Old Kentucky Home
TTITLE3=Were You There When They Crucified My Lord
TTITLE4=Blue Prelude
TTITLE5=Joshua Fit the Battle of Jericho
TTITLE6=Got the South in My Soul
TTITLE7=Go Down Mosxes
TTITLE8=The Folks I Used to Know
TTITLE9=I Stood on the River
TTITLE10=Scarecrow
TTITLE11=Shenandoah
TTITLE12=Wagon Wheels
TTITLE13=I Want to be Ready
TTITLE14=So Shy
TTITLE15=The Old Arks a-Moving
TTITLE16=I Ain't Lazy, I'm Just Dreaming
TTITLE17=Peter, Go Ring-a-dem Bells
TTITLE18=Mammy's Little Kinky Headed Boy
TTITLE19=Roll the Chariot Along
TTITLE20=Picaninny Shoes
TTITLE21=Medley
EXTD=
EXTT0=
EXTT1=
EXTT2=
EXTT3=
EXTT4=
EXTT5=
EXTT6=
EXTT7=
EXTT8=
EXTT9=
EXTT10=
EXTT11=
EXTT12=
EXTT13=
EXTT14=
EXTT15=
EXTT16=
EXTT17=
EXTT18=
EXTT19=
EXTT20=
EXTT21=
PLAYORDER=
